<svg width="317" height="44" viewBox="0 0 317 44" fill="none" xmlns="http://www.w3.org/2000/svg">
<path d="M0.504 34V0.399998H13.848C15.896 0.399998 17.72 0.815998 19.32 1.648C20.952 2.448 22.216 3.6 23.112 5.104C24.04 6.576 24.504 8.352 24.504 10.432V11.056C24.504 13.136 24.024 14.928 23.064 16.432C22.136 17.936 20.872 19.088 19.272 19.888C17.672 20.688 15.864 21.088 13.848 21.088H5.688V34H0.504ZM5.688 16.384H13.32C15.144 16.384 16.6 15.904 17.688 14.944C18.776 13.984 19.32 12.672 19.32 11.008V10.528C19.32 8.832 18.776 7.504 17.688 6.544C16.6 5.584 15.144 5.104 13.32 5.104H5.688V16.384ZM39.7616 34.672C37.3616 34.672 35.2656 34.176 33.4736 33.184C31.6816 32.16 30.2736 30.736 29.2496 28.912C28.2576 27.056 27.7616 24.912 27.7616 22.48V21.904C27.7616 19.44 28.2576 17.296 29.2496 15.472C30.2416 13.616 31.6176 12.192 33.3776 11.2C35.1696 10.176 37.2336 9.664 39.5696 9.664C41.8416 9.664 43.8256 10.176 45.5216 11.2C47.2496 12.192 48.5936 13.584 49.5536 15.376C50.5136 17.168 50.9936 19.264 50.9936 21.664V23.536H32.8016C32.8656 25.616 33.5536 27.28 34.8656 28.528C36.2096 29.744 37.8736 30.352 39.8576 30.352C41.7136 30.352 43.1056 29.936 44.0336 29.104C44.9936 28.272 45.7296 27.312 46.2416 26.224L50.3216 28.336C49.8736 29.232 49.2176 30.176 48.3536 31.168C47.5216 32.16 46.4176 32.992 45.0416 33.664C43.6656 34.336 41.9056 34.672 39.7616 34.672ZM32.8496 19.744H45.9536C45.8256 17.952 45.1856 16.56 44.0336 15.568C42.8816 14.544 41.3776 14.032 39.5216 14.032C37.6656 14.032 36.1456 14.544 34.9616 15.568C33.8096 16.56 33.1056 17.952 32.8496 19.744ZM66.7369 34.672C64.7849 34.672 62.9769 34.192 61.3129 33.232C59.6489 32.272 58.3049 30.896 57.2809 29.104C56.2889 27.28 55.7929 25.088 55.7929 22.528V21.808C55.7929 19.28 56.2889 17.104 57.2809 15.28C58.2729 13.456 59.6009 12.064 61.2649 11.104C62.9289 10.144 64.7529 9.664 66.7369 9.664C68.2729 9.664 69.5529 9.856 70.5769 10.24C71.6329 10.624 72.4969 11.12 73.1689 11.728C73.8409 12.304 74.3529 12.912 74.7049 13.552H75.4729V0.399998H80.4169V34H75.5689V30.64H74.8009C74.1929 31.664 73.2649 32.592 72.0169 33.424C70.8009 34.256 69.0409 34.672 66.7369 34.672ZM68.1289 30.352C70.2729 30.352 72.0329 29.664 73.4089 28.288C74.8169 26.912 75.5209 24.944 75.5209 22.384V21.952C75.5209 19.424 74.8329 17.472 73.4569 16.096C72.0809 14.72 70.3049 14.032 68.1289 14.032C66.0169 14.032 64.2569 14.72 62.8489 16.096C61.4729 17.472 60.7849 19.424 60.7849 21.952V22.384C60.7849 24.944 61.4729 26.912 62.8489 28.288C64.2569 29.664 66.0169 30.352 68.1289 30.352ZM87.6949 34V10.336H92.5429V13.12H93.3109C93.6949 12.128 94.3029 11.408 95.1349 10.96C95.9989 10.48 97.0549 10.24 98.3029 10.24H101.135V14.704H98.1109C96.5109 14.704 95.1989 15.152 94.1749 16.048C93.1509 16.912 92.6389 18.256 92.6389 20.08V34H87.6949ZM116.502 34.672C114.134 34.672 112.022 34.192 110.166 33.232C108.342 32.24 106.902 30.832 105.846 29.008C104.79 27.184 104.262 25.024 104.262 22.528V21.808C104.262 19.312 104.79 17.168 105.846 15.376C106.902 13.552 108.342 12.144 110.166 11.152C112.022 10.16 114.134 9.664 116.502 9.664C118.87 9.664 120.982 10.16 122.838 11.152C124.694 12.144 126.15 13.552 127.206 15.376C128.262 17.168 128.79 19.312 128.79 21.808V22.528C128.79 25.024 128.262 27.184 127.206 29.008C126.15 30.832 124.694 32.24 122.838 33.232C120.982 34.192 118.87 34.672 116.502 34.672ZM116.502 30.256C118.678 30.256 120.438 29.568 121.782 28.192C123.158 26.784 123.846 24.848 123.846 22.384V21.952C123.846 19.488 123.174 17.568 121.83 16.192C120.486 14.784 118.71 14.08 116.502 14.08C114.358 14.08 112.598 14.784 111.222 16.192C109.878 17.568 109.206 19.488 109.206 21.952V22.384C109.206 24.848 109.878 26.784 111.222 28.192C112.598 29.568 114.358 30.256 116.502 30.256ZM145.835 34V27.28L163.499 5.728V5.056H146.363V0.399998H168.827V7.12L151.163 28.672V29.344H169.019V34H145.835ZM183.72 34.432C181.928 34.432 180.328 34.032 178.92 33.232C177.512 32.432 176.408 31.296 175.608 29.824C174.808 28.352 174.408 26.592 174.408 24.544V10.336H179.352V24.208C179.352 26.256 179.864 27.776 180.888 28.768C181.912 29.728 183.336 30.208 185.16 30.208C187.176 30.208 188.792 29.536 190.008 28.192C191.256 26.816 191.88 24.848 191.88 22.288V10.336H196.824V34H191.976V30.448H191.208C190.76 31.408 189.96 32.32 188.808 33.184C187.656 34.016 185.96 34.432 183.72 34.432ZM204.132 43.6V10.336H208.98V13.744H209.748C210.356 12.688 211.268 11.744 212.484 10.912C213.732 10.08 215.508 9.664 217.812 9.664C219.796 9.664 221.604 10.144 223.236 11.104C224.9 12.064 226.228 13.456 227.22 15.28C228.244 17.072 228.756 19.248 228.756 21.808V22.528C228.756 25.088 228.26 27.28 227.268 29.104C226.276 30.896 224.948 32.272 223.284 33.232C221.62 34.192 219.796 34.672 217.812 34.672C216.276 34.672 214.98 34.48 213.924 34.096C212.868 33.712 212.02 33.232 211.38 32.656C210.74 32.048 210.228 31.424 209.844 30.784H209.076V43.6H204.132ZM216.372 30.352C218.548 30.352 220.324 29.664 221.7 28.288C223.076 26.912 223.764 24.944 223.764 22.384V21.952C223.764 19.424 223.06 17.472 221.652 16.096C220.276 14.72 218.516 14.032 216.372 14.032C214.26 14.032 212.5 14.72 211.092 16.096C209.716 17.472 209.028 19.424 209.028 21.952V22.384C209.028 24.944 209.716 26.912 211.092 28.288C212.5 29.664 214.26 30.352 216.372 30.352ZM245.97 34.672C243.602 34.672 241.49 34.192 239.634 33.232C237.81 32.24 236.37 30.832 235.314 29.008C234.258 27.184 233.73 25.024 233.73 22.528V21.808C233.73 19.312 234.258 17.168 235.314 15.376C236.37 13.552 237.81 12.144 239.634 11.152C241.49 10.16 243.602 9.664 245.97 9.664C248.338 9.664 250.45 10.16 252.306 11.152C254.162 12.144 255.618 13.552 256.674 15.376C257.73 17.168 258.258 19.312 258.258 21.808V22.528C258.258 25.024 257.73 27.184 256.674 29.008C255.618 30.832 254.162 32.24 252.306 33.232C250.45 34.192 248.338 34.672 245.97 34.672ZM245.97 30.256C248.146 30.256 249.906 29.568 251.25 28.192C252.626 26.784 253.314 24.848 253.314 22.384V21.952C253.314 19.488 252.642 17.568 251.298 16.192C249.954 14.784 248.178 14.08 245.97 14.08C243.826 14.08 242.066 14.784 240.69 16.192C239.346 17.568 238.674 19.488 238.674 21.952V22.384C238.674 24.848 239.346 26.784 240.69 28.192C242.066 29.568 243.826 30.256 245.97 30.256Z" fill="#171717"/>
<path d="M272.616 43.6L286.728 0.399998H291.672L277.56 43.6H272.616ZM295.988 27.76V22.816L311.3 17.584V16.816L295.988 11.584V6.64L316.148 14.08V20.32L295.988 27.76Z" fill="#F42020"/>
</svg>
