<svg width="386" height="65" viewBox="0 0 386 65" fill="none" xmlns="http://www.w3.org/2000/svg">
<path d="M34.96 42.76L14.8 35.32V29.08L34.96 21.64V26.584L19.696 31.816V32.584L34.96 37.816V42.76ZM327.616 58.6L341.728 15.4H346.672L332.56 58.6H327.616ZM350.988 42.76V37.816L366.3 32.584V31.816L350.988 26.584V21.64L371.148 29.08V35.32L350.988 42.76Z" fill="url(#paint0_linear_27_16)"/>
<path d="M55.504 49V15.4H68.848C70.896 15.4 72.72 15.816 74.32 16.648C75.952 17.448 77.216 18.6 78.112 20.104C79.04 21.576 79.504 23.352 79.504 25.432V26.056C79.504 28.136 79.024 29.928 78.064 31.432C77.136 32.936 75.872 34.088 74.272 34.888C72.672 35.688 70.864 36.088 68.848 36.088H60.688V49H55.504ZM60.688 31.384H68.32C70.144 31.384 71.6 30.904 72.688 29.944C73.776 28.984 74.32 27.672 74.32 26.008V25.528C74.32 23.832 73.776 22.504 72.688 21.544C71.6 20.584 70.144 20.104 68.32 20.104H60.688V31.384ZM94.7616 49.672C92.3616 49.672 90.2656 49.176 88.4736 48.184C86.6816 47.16 85.2736 45.736 84.2496 43.912C83.2576 42.056 82.7616 39.912 82.7616 37.48V36.904C82.7616 34.44 83.2576 32.296 84.2496 30.472C85.2416 28.616 86.6176 27.192 88.3776 26.2C90.1696 25.176 92.2336 24.664 94.5696 24.664C96.8416 24.664 98.8256 25.176 100.522 26.2C102.25 27.192 103.594 28.584 104.554 30.376C105.514 32.168 105.994 34.264 105.994 36.664V38.536H87.8016C87.8656 40.616 88.5536 42.28 89.8656 43.528C91.2096 44.744 92.8736 45.352 94.8576 45.352C96.7136 45.352 98.1056 44.936 99.0336 44.104C99.9936 43.272 100.73 42.312 101.242 41.224L105.322 43.336C104.874 44.232 104.218 45.176 103.354 46.168C102.522 47.16 101.418 47.992 100.042 48.664C98.6656 49.336 96.9056 49.672 94.7616 49.672ZM87.8496 34.744H100.954C100.826 32.952 100.186 31.56 99.0336 30.568C97.8816 29.544 96.3776 29.032 94.5216 29.032C92.6656 29.032 91.1456 29.544 89.9616 30.568C88.8096 31.56 88.1056 32.952 87.8496 34.744ZM121.737 49.672C119.785 49.672 117.977 49.192 116.313 48.232C114.649 47.272 113.305 45.896 112.281 44.104C111.289 42.28 110.793 40.088 110.793 37.528V36.808C110.793 34.28 111.289 32.104 112.281 30.28C113.273 28.456 114.601 27.064 116.265 26.104C117.929 25.144 119.753 24.664 121.737 24.664C123.273 24.664 124.553 24.856 125.577 25.24C126.633 25.624 127.497 26.12 128.169 26.728C128.841 27.304 129.353 27.912 129.705 28.552H130.473V15.4H135.417V49H130.569V45.64H129.801C129.193 46.664 128.265 47.592 127.017 48.424C125.801 49.256 124.041 49.672 121.737 49.672ZM123.129 45.352C125.273 45.352 127.033 44.664 128.409 43.288C129.817 41.912 130.521 39.944 130.521 37.384V36.952C130.521 34.424 129.833 32.472 128.457 31.096C127.081 29.72 125.305 29.032 123.129 29.032C121.017 29.032 119.257 29.72 117.849 31.096C116.473 32.472 115.785 34.424 115.785 36.952V37.384C115.785 39.944 116.473 41.912 117.849 43.288C119.257 44.664 121.017 45.352 123.129 45.352ZM142.695 49V25.336H147.543V28.12H148.311C148.695 27.128 149.303 26.408 150.135 25.96C150.999 25.48 152.055 25.24 153.303 25.24H156.135V29.704H153.111C151.511 29.704 150.199 30.152 149.175 31.048C148.151 31.912 147.639 33.256 147.639 35.08V49H142.695ZM171.502 49.672C169.134 49.672 167.022 49.192 165.166 48.232C163.342 47.24 161.902 45.832 160.846 44.008C159.79 42.184 159.262 40.024 159.262 37.528V36.808C159.262 34.312 159.79 32.168 160.846 30.376C161.902 28.552 163.342 27.144 165.166 26.152C167.022 25.16 169.134 24.664 171.502 24.664C173.87 24.664 175.982 25.16 177.838 26.152C179.694 27.144 181.15 28.552 182.206 30.376C183.262 32.168 183.79 34.312 183.79 36.808V37.528C183.79 40.024 183.262 42.184 182.206 44.008C181.15 45.832 179.694 47.24 177.838 48.232C175.982 49.192 173.87 49.672 171.502 49.672ZM171.502 45.256C173.678 45.256 175.438 44.568 176.782 43.192C178.158 41.784 178.846 39.848 178.846 37.384V36.952C178.846 34.488 178.174 32.568 176.83 31.192C175.486 29.784 173.71 29.08 171.502 29.08C169.358 29.08 167.598 29.784 166.222 31.192C164.878 32.568 164.206 34.488 164.206 36.952V37.384C164.206 39.848 164.878 41.784 166.222 43.192C167.598 44.568 169.358 45.256 171.502 45.256ZM200.835 49V42.28L218.499 20.728V20.056H201.363V15.4H223.827V22.12L206.163 43.672V44.344H224.019V49H200.835ZM238.72 49.432C236.928 49.432 235.328 49.032 233.92 48.232C232.512 47.432 231.408 46.296 230.608 44.824C229.808 43.352 229.408 41.592 229.408 39.544V25.336H234.352V39.208C234.352 41.256 234.864 42.776 235.888 43.768C236.912 44.728 238.336 45.208 240.16 45.208C242.176 45.208 243.792 44.536 245.008 43.192C246.256 41.816 246.88 39.848 246.88 37.288V25.336H251.824V49H246.976V45.448H246.208C245.76 46.408 244.96 47.32 243.808 48.184C242.656 49.016 240.96 49.432 238.72 49.432ZM259.132 58.6V25.336H263.98V28.744H264.748C265.356 27.688 266.268 26.744 267.484 25.912C268.732 25.08 270.508 24.664 272.812 24.664C274.796 24.664 276.604 25.144 278.236 26.104C279.9 27.064 281.228 28.456 282.22 30.28C283.244 32.072 283.756 34.248 283.756 36.808V37.528C283.756 40.088 283.26 42.28 282.268 44.104C281.276 45.896 279.948 47.272 278.284 48.232C276.62 49.192 274.796 49.672 272.812 49.672C271.276 49.672 269.98 49.48 268.924 49.096C267.868 48.712 267.02 48.232 266.38 47.656C265.74 47.048 265.228 46.424 264.844 45.784H264.076V58.6H259.132ZM271.372 45.352C273.548 45.352 275.324 44.664 276.7 43.288C278.076 41.912 278.764 39.944 278.764 37.384V36.952C278.764 34.424 278.06 32.472 276.652 31.096C275.276 29.72 273.516 29.032 271.372 29.032C269.26 29.032 267.5 29.72 266.092 31.096C264.716 32.472 264.028 34.424 264.028 36.952V37.384C264.028 39.944 264.716 41.912 266.092 43.288C267.5 44.664 269.26 45.352 271.372 45.352ZM300.97 49.672C298.602 49.672 296.49 49.192 294.634 48.232C292.81 47.24 291.37 45.832 290.314 44.008C289.258 42.184 288.73 40.024 288.73 37.528V36.808C288.73 34.312 289.258 32.168 290.314 30.376C291.37 28.552 292.81 27.144 294.634 26.152C296.49 25.16 298.602 24.664 300.97 24.664C303.338 24.664 305.45 25.16 307.306 26.152C309.162 27.144 310.618 28.552 311.674 30.376C312.73 32.168 313.258 34.312 313.258 36.808V37.528C313.258 40.024 312.73 42.184 311.674 44.008C310.618 45.832 309.162 47.24 307.306 48.232C305.45 49.192 303.338 49.672 300.97 49.672ZM300.97 45.256C303.146 45.256 304.906 44.568 306.25 43.192C307.626 41.784 308.314 39.848 308.314 37.384V36.952C308.314 34.488 307.642 32.568 306.298 31.192C304.954 29.784 303.178 29.08 300.97 29.08C298.826 29.08 297.066 29.784 295.69 31.192C294.346 32.568 293.674 34.488 293.674 36.952V37.384C293.674 39.848 294.346 41.784 295.69 43.192C297.066 44.568 298.826 45.256 300.97 45.256Z" fill="#171717"/>
<defs>
<linearGradient id="paint0_linear_27_16" x1="0.0521139" y1="31.5332" x2="314.529" y2="-147.421" gradientUnits="userSpaceOnUse">
<stop stop-color="#550000"/>
<stop offset="1" stop-color="#F20000"/>
</linearGradient>
</defs>
</svg>
